<svg xmlns="http://www.w3.org/2000/svg" xmlns:xlink="http://www.w3.org/1999/xlink" width="1366" zoomAndPan="magnify" viewBox="0 0 1024.5 576" height="768" preserveAspectRatio="xMidYMid meet" version="1.2"><defs/><g id="e758953306"><g style="fill:#000000;fill-opacity:1;"><g transform="translate(10.018483, 338.067847)"><path style="stroke:none" d="M 68.734375 -107.6875 L 82.921875 -107.6875 C 96.179688 -107.6875 106.101562 -110.304688 112.6875 -115.546875 C 119.28125 -120.785156 122.578125 -128.414062 122.578125 -138.4375 C 122.578125 -148.539062 119.816406 -156.003906 114.296875 -160.828125 C 108.773438 -165.648438 100.125 -168.0625 88.34375 -168.0625 L 68.734375 -168.0625 Z M 166.125 -139.96875 C 166.125 -118.070312 159.28125 -101.328125 145.59375 -89.734375 C 131.914062 -78.140625 112.460938 -72.34375 87.234375 -72.34375 L 68.734375 -72.34375 L 68.734375 0 L 25.59375 0 L 25.59375 -203.40625 L 90.578125 -203.40625 C 115.242188 -203.40625 134 -198.09375 146.84375 -187.46875 C 159.695312 -176.851562 166.125 -161.019531 166.125 -139.96875 Z M 166.125 -139.96875 "/></g><g transform="translate(188.938216, 338.067847)"><path style="stroke:none" d="M 59.265625 0 L 0 -155.546875 L 44.375 -155.546875 L 74.4375 -66.921875 C 77.769531 -55.703125 79.851562 -45.082031 80.6875 -35.0625 L 81.53125 -35.0625 C 81.988281 -43.96875 84.078125 -54.585938 87.796875 -66.921875 L 117.703125 -155.546875 L 162.09375 -155.546875 L 102.8125 0 Z M 59.265625 0 "/></g><g transform="translate(351.023356, 338.067847)"><path style="stroke:none" d="M 20.453125 -195.75 C 20.453125 -209.570312 28.148438 -216.484375 43.546875 -216.484375 C 58.941406 -216.484375 66.640625 -209.570312 66.640625 -195.75 C 66.640625 -189.164062 64.710938 -184.039062 60.859375 -180.375 C 57.015625 -176.71875 51.242188 -174.890625 43.546875 -174.890625 C 28.148438 -174.890625 20.453125 -181.84375 20.453125 -195.75 Z M 64.6875 0 L 22.265625 0 L 22.265625 -155.546875 L 64.6875 -155.546875 Z M 64.6875 0 "/></g><g transform="translate(437.978902, 338.067847)"><path style="stroke:none" d="M 85.421875 2.78125 C 37.003906 2.78125 12.796875 -23.789062 12.796875 -76.9375 C 12.796875 -103.375 19.378906 -123.570312 32.546875 -137.53125 C 45.722656 -151.488281 64.601562 -158.46875 89.1875 -158.46875 C 107.175781 -158.46875 123.3125 -154.941406 137.59375 -147.890625 L 125.078125 -115.0625 C 118.398438 -117.75 112.1875 -119.953125 106.4375 -121.671875 C 100.6875 -123.390625 94.9375 -124.25 89.1875 -124.25 C 67.101562 -124.25 56.0625 -108.570312 56.0625 -77.21875 C 56.0625 -46.789062 67.101562 -31.578125 89.1875 -31.578125 C 97.34375 -31.578125 104.898438 -32.664062 111.859375 -34.84375 C 118.816406 -37.03125 125.773438 -40.441406 132.734375 -45.078125 L 132.734375 -8.765625 C 125.867188 -4.398438 118.929688 -1.382812 111.921875 0.28125 C 104.921875 1.945312 96.085938 2.78125 85.421875 2.78125 Z M 85.421875 2.78125 "/></g></g><g style="fill:#000000;fill-opacity:1;"><g transform="translate(584.481584, 338.067847)"><path style="stroke:none" d="M 87.796875 -31.03125 C 95.210938 -31.03125 104.113281 -32.648438 114.5 -35.890625 L 114.5 -4.3125 C 103.925781 0.414062 90.941406 2.78125 75.546875 2.78125 C 58.578125 2.78125 46.21875 -1.503906 38.46875 -10.078125 C 30.726562 -18.660156 26.859375 -31.535156 26.859375 -48.703125 L 26.859375 -123.6875 L 6.546875 -123.6875 L 6.546875 -141.640625 L 29.90625 -155.828125 L 42.15625 -188.65625 L 69.28125 -188.65625 L 69.28125 -155.546875 L 112.828125 -155.546875 L 112.828125 -123.6875 L 69.28125 -123.6875 L 69.28125 -48.703125 C 69.28125 -42.671875 70.972656 -38.21875 74.359375 -35.34375 C 77.742188 -32.46875 82.222656 -31.03125 87.796875 -31.03125 Z M 87.796875 -31.03125 "/></g></g><g style="fill:#000000;fill-opacity:1;"><g transform="translate(708.167141, 338.067847)"><path style="stroke:none" d="M 56.0625 -78.046875 C 56.0625 -62.648438 58.585938 -51.007812 63.640625 -43.125 C 68.703125 -35.238281 76.9375 -31.296875 88.34375 -31.296875 C 99.664062 -31.296875 107.804688 -35.210938 112.765625 -43.046875 C 117.722656 -50.890625 120.203125 -62.554688 120.203125 -78.046875 C 120.203125 -93.441406 117.695312 -104.988281 112.6875 -112.6875 C 107.6875 -120.394531 99.476562 -124.25 88.0625 -124.25 C 76.75 -124.25 68.585938 -120.421875 63.578125 -112.765625 C 58.566406 -105.109375 56.0625 -93.535156 56.0625 -78.046875 Z M 163.609375 -78.046875 C 163.609375 -52.722656 156.929688 -32.921875 143.578125 -18.640625 C 130.222656 -4.359375 111.628906 2.78125 87.796875 2.78125 C 72.859375 2.78125 59.6875 -0.484375 48.28125 -7.015625 C 36.875 -13.554688 28.109375 -22.945312 21.984375 -35.1875 C 15.859375 -47.4375 12.796875 -61.722656 12.796875 -78.046875 C 12.796875 -103.460938 19.425781 -123.21875 32.6875 -137.3125 C 45.957031 -151.414062 64.601562 -158.46875 88.625 -158.46875 C 103.5625 -158.46875 116.734375 -155.21875 128.140625 -148.71875 C 139.546875 -142.226562 148.304688 -132.90625 154.421875 -120.75 C 160.546875 -108.601562 163.609375 -94.367188 163.609375 -78.046875 Z M 163.609375 -78.046875 "/></g></g><g style="fill:#000000;fill-opacity:1;"><g transform="translate(884.582533, 338.067847)"><path style="stroke:none" d="M 109.078125 -158.46875 C 114.828125 -158.46875 119.601562 -158.050781 123.40625 -157.21875 L 120.203125 -117.421875 C 116.773438 -118.347656 112.601562 -118.8125 107.6875 -118.8125 C 94.144531 -118.8125 83.59375 -115.332031 76.03125 -108.375 C 68.46875 -101.425781 64.6875 -91.691406 64.6875 -79.171875 L 64.6875 0 L 22.265625 0 L 22.265625 -155.546875 L 54.40625 -155.546875 L 60.65625 -129.390625 L 62.75 -129.390625 C 67.570312 -138.109375 74.085938 -145.132812 82.296875 -150.46875 C 90.503906 -155.800781 99.429688 -158.46875 109.078125 -158.46875 Z M 109.078125 -158.46875 "/></g></g></g></svg>